<svg xmlns="http://www.w3.org/2000/svg" viewBox="0 0 91 57" id="el_Hk_jK6IhX"><style>@-webkit-keyframes el_H1fOoFTL3Q_BJEG9682m_Animation{0%{-webkit-transform: translate(0px, 0px) translate(0px, 0px) translate(0px, -100px);transform: translate(0px, 0px) translate(0px, 0px) translate(0px, -100px);}66.67%{-webkit-transform: translate(0px, 0px) translate(0px, 0px) translate(0px, 0px);transform: translate(0px, 0px) translate(0px, 0px) translate(0px, 0px);}100%{-webkit-transform: translate(0px, 0px) translate(0px, 0px) translate(0px, 0px);transform: translate(0px, 0px) translate(0px, 0px) translate(0px, 0px);}}@keyframes el_H1fOoFTL3Q_BJEG9682m_Animation{0%{-webkit-transform: translate(0px, 0px) translate(0px, 0px) translate(0px, -100px);transform: translate(0px, 0px) translate(0px, 0px) translate(0px, -100px);}66.67%{-webkit-transform: translate(0px, 0px) translate(0px, 0px) translate(0px, 0px);transform: translate(0px, 0px) translate(0px, 0px) translate(0px, 0px);}100%{-webkit-transform: translate(0px, 0px) translate(0px, 0px) translate(0px, 0px);transform: translate(0px, 0px) translate(0px, 0px) translate(0px, 0px);}}#el_Hk_jK6IhX *{-webkit-animation-duration: 3s;animation-duration: 3s;-webkit-animation-iteration-count: infinite;animation-iteration-count: infinite;-webkit-animation-timing-function: cubic-bezier(0, 0, 1, 1);animation-timing-function: cubic-bezier(0, 0, 1, 1);}#el_ByX_otTLnX{fill: red;}#el_BJNujKa837{fill: red;}#el_ByHdoKp8nX{fill: red;}#el_H1IdotpInQ{fill: red;}#el_rkvujKaIhm{fill: red;}#el_SydOoFTLn7{fill: blue;}#el_SJt_iYT8nQ{fill: #fff;}#el_r15_stTUnX{fill: #fff;}#el_SJodiKpLhQ{fill: #fff;}#el_Sy3_it6U27{fill: #fff;}#el_BJadiF6L2Q{fill: #fff;}#el_rJROjY68nX{fill: #fff;}#el_r11ldjt6Uh7{fill: #fff;}#el_BkxxuiKpUnQ{fill: #fff;}#el_Hk-lOsKpL37{fill: #fff;}#el_SJGe_oFpI3X{fill: #fff;}#el_By7ldstT8h7{fill: #fff;}#el_B1NeusYT83X{fill: #fff;}#el_H1fOoFTL3Q_BJEG9682m{-webkit-animation-name: el_H1fOoFTL3Q_BJEG9682m_Animation;animation-name: el_H1fOoFTL3Q_BJEG9682m_Animation;-webkit-transform: translate(0px, 0px) translate(0px, 0px) translate(0px, -100px);transform: translate(0px, 0px) translate(0px, 0px) translate(0px, -100px);}</style><defs/><title>Asset 23</title><g id="el_rkeOjYT82X" data-name="Layer 2"><g id="el_H1b_stTU2Q"><g id="el_H1fOoFTL3Q_BJEG9682m" data-animator-group="true" data-animator-type="0"><g id="el_H1fOoFTL3Q" data-name="America"><rect id="el_ByX_otTLnX" data-name="5" y="50.79" width="91" height="6.35"/><rect id="el_BJNujKa837" data-name="4" y="38.09" width="91" height="6.35"/><rect id="el_ByHdoKp8nX" data-name="3" x="29.63" y="25.4" width="61.37" height="6.35"/><rect id="el_H1IdotpInQ" data-name="2" x="29.63" y="12.7" width="61.37" height="6.35"/><rect id="el_rkvujKaIhm" data-name="1" x="29.63" width="61.37" height="6.35"/><rect id="el_SydOoFTLn7" x="0.53" width="29.1" height="31.74"/><polygon id="el_SJt_iYT8nQ" data-name="4" points="7.76 14.81 5.36 13.65 3.04 14.97 3.4 12.32 1.43 10.52 4.06 10.05 5.16 7.62 6.42 9.97 9.07 10.27 7.22 12.2 7.76 14.81"/><polygon id="el_r15_stTUnX" data-name="5" points="16.23 14.81 13.82 13.65 11.5 14.97 11.87 12.32 9.89 10.52 12.52 10.05 13.62 7.62 14.88 9.97 17.54 10.27 15.69 12.2 16.23 14.81"/><polygon id="el_SJodiKpLhQ" data-name="6" points="24.69 14.81 22.29 13.65 19.96 14.97 20.33 12.32 18.36 10.52 20.99 10.05 22.09 7.62 23.35 9.97 26 10.27 24.15 12.2 24.69 14.81"/><polygon id="el_Sy3_it6U27" data-name="11" points="16.23 29.63 13.82 28.46 11.5 29.78 11.87 27.14 9.89 25.34 12.52 24.87 13.62 22.43 14.88 24.79 17.54 25.09 15.69 27.01 16.23 29.63"/><polygon id="el_BJadiF6L2Q" data-name="12" points="24.69 29.63 22.29 28.46 19.96 29.78 20.33 27.14 18.36 25.34 20.99 24.87 22.09 22.43 23.35 24.79 26 25.09 24.15 27.01 24.69 29.63"/><polygon id="el_rJROjY68nX" data-name="10" points="7.76 29.63 5.36 28.46 3.04 29.78 3.4 27.14 1.43 25.34 4.06 24.87 5.16 22.43 6.42 24.79 9.07 25.09 7.22 27.01 7.76 29.63"/><polygon id="el_r11ldjt6Uh7" data-name="7" points="6.7 22.22 4.3 21.06 1.98 22.38 2.34 19.73 0.37 17.93 3 17.46 4.1 15.03 5.36 17.38 8.02 17.68 6.16 19.61 6.7 22.22"/><polygon id="el_BkxxuiKpUnQ" data-name="1" points="6.7 7.41 4.3 6.24 1.98 7.56 2.34 4.92 0.37 3.12 3 2.65 4.1 0.21 5.36 2.57 8.02 2.87 6.16 4.79 6.7 7.41"/><polygon id="el_Hk-lOsKpL37" data-name="2" points="15.17 7.41 12.76 6.24 10.44 7.56 10.81 4.92 8.83 3.12 11.46 2.65 12.57 0.21 13.83 2.57 16.48 2.87 14.63 4.79 15.17 7.41"/><polygon id="el_SJGe_oFpI3X" data-name="3" points="23.63 7.41 21.23 6.24 18.91 7.56 19.27 4.92 17.3 3.12 19.93 2.65 21.03 0.21 22.29 2.57 24.95 2.87 23.09 4.79 23.63 7.41"/><polygon id="el_By7ldstT8h7" data-name="8" points="15.17 22.22 12.76 21.06 10.44 22.38 10.81 19.73 8.83 17.93 11.46 17.46 12.57 15.03 13.83 17.38 16.48 17.68 14.63 19.61 15.17 22.22"/><polygon id="el_B1NeusYT83X" data-name="9" points="23.63 22.22 21.23 21.06 18.91 22.38 19.27 19.73 17.3 17.93 19.93 17.46 21.03 15.03 22.29 17.38 24.95 17.68 23.09 19.61 23.63 22.22"/></g></g></g></g></svg>