<svg xmlns="http://www.w3.org/2000/svg" viewBox="0 0 43 125" id="el_H1PY-AL3Q"><style>@-webkit-keyframes el_SyWPKWRL3m_Syli-0Ln7_Animation{0%{-webkit-transform: translate(0px, 0px) translate(0px, 0px) translate(0px, 110px);transform: translate(0px, 0px) translate(0px, 0px) translate(0px, 110px);}15%{-webkit-transform: translate(0px, 0px) translate(0px, 0px) translate(0px, 100px);transform: translate(0px, 0px) translate(0px, 0px) translate(0px, 100px);}30%{-webkit-transform: translate(0px, 0px) translate(0px, 0px) translate(0px, 110px);transform: translate(0px, 0px) translate(0px, 0px) translate(0px, 110px);}50%{-webkit-transform: translate(0px, 0px) translate(0px, 0px) translate(0px, 110px);transform: translate(0px, 0px) translate(0px, 0px) translate(0px, 110px);}75%{-webkit-transform: translate(0px, 0px) translate(0px, 0px) translate(0px, 0px);transform: translate(0px, 0px) translate(0px, 0px) translate(0px, 0px);}100%{-webkit-transform: translate(0px, 0px) translate(0px, 0px) translate(0px, 0px);transform: translate(0px, 0px) translate(0px, 0px) translate(0px, 0px);}}@keyframes el_SyWPKWRL3m_Syli-0Ln7_Animation{0%{-webkit-transform: translate(0px, 0px) translate(0px, 0px) translate(0px, 110px);transform: translate(0px, 0px) translate(0px, 0px) translate(0px, 110px);}15%{-webkit-transform: translate(0px, 0px) translate(0px, 0px) translate(0px, 100px);transform: translate(0px, 0px) translate(0px, 0px) translate(0px, 100px);}30%{-webkit-transform: translate(0px, 0px) translate(0px, 0px) translate(0px, 110px);transform: translate(0px, 0px) translate(0px, 0px) translate(0px, 110px);}50%{-webkit-transform: translate(0px, 0px) translate(0px, 0px) translate(0px, 110px);transform: translate(0px, 0px) translate(0px, 0px) translate(0px, 110px);}75%{-webkit-transform: translate(0px, 0px) translate(0px, 0px) translate(0px, 0px);transform: translate(0px, 0px) translate(0px, 0px) translate(0px, 0px);}100%{-webkit-transform: translate(0px, 0px) translate(0px, 0px) translate(0px, 0px);transform: translate(0px, 0px) translate(0px, 0px) translate(0px, 0px);}}#el_H1PY-AL3Q *{-webkit-animation-duration: 2s;animation-duration: 2s;-webkit-animation-iteration-count: infinite;animation-iteration-count: infinite;-webkit-animation-timing-function: cubic-bezier(0, 0, 1, 1);animation-timing-function: cubic-bezier(0, 0, 1, 1);}#el_r17vFbRL3Q{fill: lime;}#el_HyEDYbRU37{fill: lime;-webkit-transform: translate(19.87px, -15.33px) rotate(45deg);transform: translate(19.87px, -15.33px) rotate(45deg);}#el_r1rDYWR8h7{fill: lime;-webkit-transform: translate(37.43px, 17.13px) rotate(135deg);transform: translate(37.43px, 17.13px) rotate(135deg);}#el_S18DY-RUhQ{fill: #f7931e;}#el_SyWPKWRL3m_Syli-0Ln7{-webkit-animation-name: el_SyWPKWRL3m_Syli-0Ln7_Animation;animation-name: el_SyWPKWRL3m_Syli-0Ln7_Animation;-webkit-transform: translate(0px, 0px) translate(0px, 0px) translate(0px, 110px);transform: translate(0px, 0px) translate(0px, 0px) translate(0px, 110px);}</style><defs/><title>Asset 20</title><g id="el_H1gvtZCIh7" data-name="Layer 2"><g id="el_SyWPKWRL3m_Syli-0Ln7" data-animator-group="true" data-animator-type="0"><g id="el_SyWPKWRL3m"><g id="el_r1fwY-CL2m" data-name="Carrot"><rect id="el_r17vFbRL3Q" data-name="Middle leaf" x="18.48" width="6.64" height="26" rx="3.32" ry="3.32"/><rect id="el_HyEDYbRU37" data-name="Right Leaf" x="25.12" y="3.32" width="6.64" height="26" rx="3.32" ry="3.32"/><rect id="el_r1rDYWR8h7" data-name="Left Leaf" x="11.85" y="3.32" width="6.64" height="26" rx="3.32" ry="3.32"/><path id="el_S18DY-RUhQ" data-name="Carrot" d="M23.46,125h0L.6,38.83A17.7,17.7,0,0,1,17.71,16.59h8A17.7,17.7,0,0,1,43,38.17Z"/><path id="el_HJvPFbA8hm" data-name="Ring 1" d="M0,33.74H43.38c0-.56-.06-1.11-.13-1.66H.14C.07,32.63,0,33.18,0,33.74Z"/><polygon id="el_SJdwtZR837" data-name="Ring 2" points="41.84 43.14 1.74 43.14 2.19 44.8 41.47 44.8 41.84 43.14"/><polygon id="el_HkKwKWCI2m" data-name="Ring 3" points="4.83 54.76 39.23 54.76 39.6 53.1 4.39 53.1 4.83 54.76"/><polygon id="el_BycPYbAI2m" data-name="ring 4" points="7.47 64.71 37 64.71 37.37 63.05 7.03 63.05 7.47 64.71"/><polygon id="el_B1owtW0I2m" data-name="ring 5" points="10.11 74.67 34.76 74.67 35.13 73.01 9.67 73.01 10.11 74.67"/><polygon id="el_SyhvFZCLhX" data-name="ring 6" points="12.75 84.62 32.53 84.62 32.9 82.97 12.31 82.97 12.75 84.62"/><polygon id="el_Hy6vFW0I37" data-name="ring 7" points="15.39 94.58 30.29 94.58 30.66 92.92 14.95 92.92 15.39 94.58"/><polygon id="el_Bk0wtZRInX" data-name="ring 8" points="18.03 104.53 28.06 104.53 28.43 102.88 17.59 102.88 18.03 104.53"/><polygon id="el_r1yxvF-0Inm" data-name="ring 9" points="20.67 114.49 25.82 114.49 26.19 112.83 20.23 112.83 20.67 114.49"/></g></g></g></g></svg>