<svg xmlns="http://www.w3.org/2000/svg" viewBox="0 0 93 138" id="el_HJMh80InX"><style>@-webkit-keyframes el_ryXzhUCIhX_Animation{80%{opacity: 0;}86.67%{opacity: 1;}0%{opacity: 0;}100%{opacity: 1;}}@keyframes el_ryXzhUCIhX_Animation{80%{opacity: 0;}86.67%{opacity: 1;}0%{opacity: 0;}100%{opacity: 1;}}@-webkit-keyframes el_SkrM2LRLhQ_Animation{66.67%{opacity: 0;}73.33%{opacity: 1;}0%{opacity: 0;}100%{opacity: 1;}}@keyframes el_SkrM2LRLhQ_Animation{66.67%{opacity: 0;}73.33%{opacity: 1;}0%{opacity: 0;}100%{opacity: 1;}}@-webkit-keyframes el_HJDzhIRUnm_Animation{53.33%{opacity: 0;}60%{opacity: 1;}0%{opacity: 0;}100%{opacity: 1;}}@keyframes el_HJDzhIRUnm_Animation{53.33%{opacity: 0;}60%{opacity: 1;}0%{opacity: 0;}100%{opacity: 1;}}@-webkit-keyframes el_Hytf2IRUnm_Animation{40%{opacity: 0;}46.67%{opacity: 1;}0%{opacity: 0;}100%{opacity: 1;}}@keyframes el_Hytf2IRUnm_Animation{40%{opacity: 0;}46.67%{opacity: 1;}0%{opacity: 0;}100%{opacity: 1;}}@-webkit-keyframes el_SJoMhL0UhX_Animation{26.67%{opacity: 0;}33.33%{opacity: 1;}0%{opacity: 0;}100%{opacity: 1;}}@keyframes el_SJoMhL0UhX_Animation{26.67%{opacity: 0;}33.33%{opacity: 1;}0%{opacity: 0;}100%{opacity: 1;}}@-webkit-keyframes el_ryTz2URU27_Animation{13.33%{opacity: 0;}20%{opacity: 1;}0%{opacity: 0;}100%{opacity: 1;}}@keyframes el_ryTz2URU27_Animation{13.33%{opacity: 0;}20%{opacity: 1;}0%{opacity: 0;}100%{opacity: 1;}}@-webkit-keyframes el_BJygMh8CInX_Animation{0%{opacity: 0;}6.67%{opacity: 1;}100%{opacity: 1;}}@keyframes el_BJygMh8CInX_Animation{0%{opacity: 0;}6.67%{opacity: 1;}100%{opacity: 1;}}#el_HJMh80InX *{-webkit-animation-duration: 1.5s;animation-duration: 1.5s;-webkit-animation-iteration-count: infinite;animation-iteration-count: infinite;-webkit-animation-timing-function: cubic-bezier(0, 0, 1, 1);animation-timing-function: cubic-bezier(0, 0, 1, 1);}#el_By4Mn8RLnQ{fill: #ff0;}#el_SJ8zhIR827{fill: #f0f;}#el_HyOGhUC8hm{fill: #ff0;}#el_S1qG2U0I37{fill: #f0f;}#el_HkhM2IRUn7{fill: #ff0;}#el_rJRf2LCI2X{fill: #f0f;}#el_HyxgM2U0U2X{fill: #ff0;}#el_BJygMh8CInX{-webkit-animation-name: el_BJygMh8CInX_Animation;animation-name: el_BJygMh8CInX_Animation;opacity: 0;}#el_ryTz2URU27{-webkit-animation-name: el_ryTz2URU27_Animation;animation-name: el_ryTz2URU27_Animation;opacity: 0;}#el_SJoMhL0UhX{-webkit-animation-name: el_SJoMhL0UhX_Animation;animation-name: el_SJoMhL0UhX_Animation;opacity: 0;}#el_Hytf2IRUnm{-webkit-animation-name: el_Hytf2IRUnm_Animation;animation-name: el_Hytf2IRUnm_Animation;opacity: 0;}#el_HJDzhIRUnm{-webkit-animation-name: el_HJDzhIRUnm_Animation;animation-name: el_HJDzhIRUnm_Animation;opacity: 0;}#el_SkrM2LRLhQ{-webkit-animation-name: el_SkrM2LRLhQ_Animation;animation-name: el_SkrM2LRLhQ_Animation;opacity: 0;}#el_ryXzhUCIhX{-webkit-animation-name: el_ryXzhUCIhX_Animation;animation-name: el_ryXzhUCIhX_Animation;opacity: 0;}</style><defs/><title>Asset 8</title><g id="el_rJezhUCI2X" data-name="Layer 2"><g id="el_BJ-M3URUnm" data-name="Easter egg"><g id="el_BkMG3UAU3Q" data-name="Easter Egg"><g id="el_ryXzhUCIhX" data-name="Yellow 1"><path d="M16.89,15.79H76.11C68.06,5.93,57.75,0,46.5,0S24.94,5.93,16.89,15.79Z" id="el_By4Mn8RLnQ"/></g><g id="el_SkrM2LRLhQ" data-name="pink 1"><path d="M4.8,38.45H88.2A71.74,71.74,0,0,0,76.11,15.79H16.89A71.74,71.74,0,0,0,4.8,38.45Z" id="el_SJ8zhIR827"/></g><g id="el_HJDzhIRUnm" data-name="Yellow 2"><path d="M.3,61.1H92.7a95,95,0,0,0-4.5-22.65H4.8A95,95,0,0,0,.3,61.1Z" id="el_HyOGhUC8hm"/></g><g id="el_Hytf2IRUnm" data-name="Pink 2"><path d="M0,69A101.43,101.43,0,0,0,1.07,83.76H91.93A101.43,101.43,0,0,0,93,69c0-2.67-.11-5.3-.3-7.9H.3C.11,63.7,0,66.33,0,69Z" id="el_S1qG2U0I37"/></g><g id="el_SJoMhL0UhX" data-name="yellow 3"><path d="M7.43,106.42H85.57a88.93,88.93,0,0,0,6.36-22.66H1.07A88.93,88.93,0,0,0,7.43,106.42Z" id="el_HkhM2IRUn7"/></g><g id="el_ryTz2URU27" data-name="Pink 3"><path d="M7.43,106.42c4.07,9.35,9.63,17.15,16.19,22.65H69.38c6.56-5.5,12.12-13.3,16.19-22.65Z" id="el_rJRf2LCI2X"/></g><g id="el_BJygMh8CInX" data-name="Yellow 4"><path d="M46.5,138c8.32,0,16.13-3.25,22.88-8.93H23.62C30.37,134.75,38.18,138,46.5,138Z" id="el_HyxgM2U0U2X"/></g></g></g></g></svg>