<svg xmlns="http://www.w3.org/2000/svg" viewBox="0 0 82 88" id="el_H1N2v-1Ph7"><style>@-webkit-keyframes el_B1Jg3v-kDhm_B1UAM1w3Q_Animation{36.67%{-webkit-transform: translate(41.01000213623047px, 17px) scale(1, 1) translate(-41.01000213623047px, -17px);transform: translate(41.01000213623047px, 17px) scale(1, 1) translate(-41.01000213623047px, -17px);}50%{-webkit-transform: translate(41.01000213623047px, 17px) scale(1.15, 1.15) translate(-41.01000213623047px, -17px);transform: translate(41.01000213623047px, 17px) scale(1.15, 1.15) translate(-41.01000213623047px, -17px);}63.33%{-webkit-transform: translate(41.01000213623047px, 17px) scale(1, 1) translate(-41.01000213623047px, -17px);transform: translate(41.01000213623047px, 17px) scale(1, 1) translate(-41.01000213623047px, -17px);}0%{-webkit-transform: translate(41.01000213623047px, 17px) scale(1, 1) translate(-41.01000213623047px, -17px);transform: translate(41.01000213623047px, 17px) scale(1, 1) translate(-41.01000213623047px, -17px);}100%{-webkit-transform: translate(41.01000213623047px, 17px) scale(1, 1) translate(-41.01000213623047px, -17px);transform: translate(41.01000213623047px, 17px) scale(1, 1) translate(-41.01000213623047px, -17px);}}@keyframes el_B1Jg3v-kDhm_B1UAM1w3Q_Animation{36.67%{-webkit-transform: translate(41.01000213623047px, 17px) scale(1, 1) translate(-41.01000213623047px, -17px);transform: translate(41.01000213623047px, 17px) scale(1, 1) translate(-41.01000213623047px, -17px);}50%{-webkit-transform: translate(41.01000213623047px, 17px) scale(1.15, 1.15) translate(-41.01000213623047px, -17px);transform: translate(41.01000213623047px, 17px) scale(1.15, 1.15) translate(-41.01000213623047px, -17px);}63.33%{-webkit-transform: translate(41.01000213623047px, 17px) scale(1, 1) translate(-41.01000213623047px, -17px);transform: translate(41.01000213623047px, 17px) scale(1, 1) translate(-41.01000213623047px, -17px);}0%{-webkit-transform: translate(41.01000213623047px, 17px) scale(1, 1) translate(-41.01000213623047px, -17px);transform: translate(41.01000213623047px, 17px) scale(1, 1) translate(-41.01000213623047px, -17px);}100%{-webkit-transform: translate(41.01000213623047px, 17px) scale(1, 1) translate(-41.01000213623047px, -17px);transform: translate(41.01000213623047px, 17px) scale(1, 1) translate(-41.01000213623047px, -17px);}}@-webkit-keyframes el_B1Jg3v-kDhm_Animation{33.33%{opacity: 0;}36.67%{opacity: 1;}0%{opacity: 0;}100%{opacity: 1;}}@keyframes el_B1Jg3v-kDhm_Animation{33.33%{opacity: 0;}36.67%{opacity: 1;}0%{opacity: 0;}100%{opacity: 1;}}@-webkit-keyframes el_SyLxnw-JP27_Animation{26.67%{opacity: 0;}30%{opacity: 1;}0%{opacity: 0;}100%{opacity: 1;}}@keyframes el_SyLxnw-JP27_Animation{26.67%{opacity: 0;}30%{opacity: 1;}0%{opacity: 0;}100%{opacity: 1;}}@-webkit-keyframes el_ByEx3wb1w3X_Animation{20%{opacity: 0;}23.33%{opacity: 1;}0%{opacity: 0;}100%{opacity: 1;}}@keyframes el_ByEx3wb1w3X_Animation{20%{opacity: 0;}23.33%{opacity: 1;}0%{opacity: 0;}100%{opacity: 1;}}@-webkit-keyframes el_HyMghD-yP2X_Animation{13.33%{opacity: 0;}16.67%{opacity: 1;}0%{opacity: 0;}100%{opacity: 1;}}@keyframes el_HyMghD-yP2X_Animation{13.33%{opacity: 0;}16.67%{opacity: 1;}0%{opacity: 0;}100%{opacity: 1;}}@-webkit-keyframes el_Byxghw-kPnQ_Animation{6.67%{opacity: 0;}10%{opacity: 1;}0%{opacity: 0;}100%{opacity: 1;}}@keyframes el_Byxghw-kPnQ_Animation{6.67%{opacity: 0;}10%{opacity: 1;}0%{opacity: 0;}100%{opacity: 1;}}@-webkit-keyframes el_rJHxhDZkDnm_Animation{26.67%{opacity: 0;}30%{opacity: 1;}0%{opacity: 0;}100%{opacity: 1;}}@keyframes el_rJHxhDZkDnm_Animation{26.67%{opacity: 0;}30%{opacity: 1;}0%{opacity: 0;}100%{opacity: 1;}}@-webkit-keyframes el_HkXghv-yP3m_Animation{20%{opacity: 0;}23.33%{opacity: 1;}0%{opacity: 0;}100%{opacity: 1;}}@keyframes el_HkXghv-yP3m_Animation{20%{opacity: 0;}23.33%{opacity: 1;}0%{opacity: 0;}100%{opacity: 1;}}@-webkit-keyframes el_r1-e2wbyv37_Animation{13.33%{opacity: 0;}16.67%{opacity: 1;}0%{opacity: 0;}100%{opacity: 1;}}@keyframes el_r1-e2wbyv37_Animation{13.33%{opacity: 0;}16.67%{opacity: 1;}0%{opacity: 0;}100%{opacity: 1;}}@-webkit-keyframes el_H1A3PZyDhm_Animation{6.67%{opacity: 0;}10%{opacity: 1;}0%{opacity: 0;}100%{opacity: 1;}}@keyframes el_H1A3PZyDhm_Animation{6.67%{opacity: 0;}10%{opacity: 1;}0%{opacity: 0;}100%{opacity: 1;}}#el_H1N2v-1Ph7 *{-webkit-animation-duration: 3s;animation-duration: 3s;-webkit-animation-iteration-count: infinite;animation-iteration-count: infinite;-webkit-animation-timing-function: cubic-bezier(0, 0, 1, 1);animation-timing-function: cubic-bezier(0, 0, 1, 1);}#el_H1dhP-kv3m{fill: #29abe2;}#el_B1KnDZyPhX{fill: #29abe2;}#el_Skc2PZJvnm{fill: #29abe2;}#el_Bkj3DbkP2X{fill: #29abe2;}#el_Bkn2v-kw37{fill: #29abe2;}#el_Sy6hDWkD2X{fill: #29abe2;}#el_H1A3PZyDhm{fill: #f7931e;-webkit-animation-name: el_H1A3PZyDhm_Animation;animation-name: el_H1A3PZyDhm_Animation;opacity: 0;}#el_B1Jg3v-kDhm{fill: #f7931e;-webkit-animation-name: el_B1Jg3v-kDhm_Animation;animation-name: el_B1Jg3v-kDhm_Animation;opacity: 0;}#el_Byxghw-kPnQ{fill: #f7931e;-webkit-animation-name: el_Byxghw-kPnQ_Animation;animation-name: el_Byxghw-kPnQ_Animation;opacity: 0;}#el_r1-e2wbyv37{fill: #f7931e;-webkit-animation-name: el_r1-e2wbyv37_Animation;animation-name: el_r1-e2wbyv37_Animation;opacity: 0;}#el_HyMghD-yP2X{fill: #f7931e;-webkit-animation-name: el_HyMghD-yP2X_Animation;animation-name: el_HyMghD-yP2X_Animation;opacity: 0;}#el_HkXghv-yP3m{fill: #f7931e;-webkit-animation-name: el_HkXghv-yP3m_Animation;animation-name: el_HkXghv-yP3m_Animation;opacity: 0;}#el_ByEx3wb1w3X{fill: #f7931e;-webkit-animation-name: el_ByEx3wb1w3X_Animation;animation-name: el_ByEx3wb1w3X_Animation;opacity: 0;}#el_rJHxhDZkDnm{fill: #f7931e;-webkit-animation-name: el_rJHxhDZkDnm_Animation;animation-name: el_rJHxhDZkDnm_Animation;opacity: 0;}#el_SyLxnw-JP27{fill: #f7931e;-webkit-animation-name: el_SyLxnw-JP27_Animation;animation-name: el_SyLxnw-JP27_Animation;opacity: 0;}#el_B1Jg3v-kDhm_B1UAM1w3Q{-webkit-transform: translate(41.01000213623047px, 17px) scale(1, 1) translate(-41.01000213623047px, -17px);transform: translate(41.01000213623047px, 17px) scale(1, 1) translate(-41.01000213623047px, -17px);-webkit-animation-name: el_B1Jg3v-kDhm_B1UAM1w3Q_Animation;animation-name: el_B1Jg3v-kDhm_B1UAM1w3Q_Animation;}</style><defs/><title>Asset 22</title><g id="el_Syr3wW1vhX" data-name="Layer 2"><g id="el_B1Unvb1wn7"><g id="el_HkDnPZJvhX" data-name="Menorah"><path id="el_H1dhP-kv3m" data-name=" Base" d="M41,77A11,11,0,0,0,30,88H52A11,11,0,0,0,41,77Z"/><rect id="el_B1KnDZyPhX" data-name="Middle candle" x="38.21" y="16" width="5.59" height="68"/><path id="el_Skc2PZJvnm" data-name="Inner ring" d="M41,30.49C32.38,30.49,25.39,24,25.39,16H22c0,9.74,8.51,17.64,19,17.64S60,25.74,60,16H56.61C56.61,24,49.62,30.49,41,30.49Z"/><path id="el_Bkj3DbkP2X" data-name="2nd ring" d="M41,35.07c-11.34,0-20.54-8.54-20.54-19.07H16c0,12.82,11.19,23.21,25,23.21S66,28.82,66,16H61.54C61.54,26.53,52.34,35.07,41,35.07Z"/><path id="el_Bkn2v-kw37" data-name="3rd ring" d="M41,41.41C26.48,41.41,14.71,30.48,14.71,16H9C9,33.41,23.33,46.71,41,46.71S73,33.41,73,16H67.29C67.29,30.48,55.52,41.41,41,41.41Z"/><path id="el_Sy6hDWkD2X" data-name="4th ring" d="M41,49C22.4,49,7.32,33.27,7.32,16H0C0,37,18.36,55,41,55S82,37,82,16H74.68C74.68,33.27,59.6,49,41,49Z"/><path id="el_H1A3PZyDhm" data-name="Left 1" d="M7.42,11.89C7.42,15.48,5.74,16,3.66,16S.58,14.8.58,11.21,3.32,3,3.66,3,7.42,8.3,7.42,11.89Z"/><g id="el_B1Jg3v-kDhm_B1UAM1w3Q" data-animator-group="true" data-animator-type="2"><path id="el_B1Jg3v-kDhm" data-name="Middle flame" d="M45.47,11.63c0,4.7-2.2,5.37-4.92,5.37s-4-1.57-4-6.26S40.11,0,40.55,0,45.47,6.94,45.47,11.63Z"/></g><path id="el_Byxghw-kPnQ" data-name="right 1" d="M81.42,11.89c0,3.59-1.68,4.11-3.76,4.11s-3.08-1.2-3.08-4.79S77.32,3,77.66,3,81.42,8.3,81.42,11.89Z"/><path id="el_r1-e2wbyv37" data-name="Left 2" d="M15,12.6c0,3.15-1.48,3.6-3.3,3.6S9,15.15,9,12s2.4-7.2,2.7-7.2S15,9.45,15,12.6Z"/><path id="el_HyMghD-yP2X" data-name="right 2" d="M73,12.6c0,3.15-1.48,3.6-3.3,3.6S67,15.15,67,12s2.4-7.2,2.7-7.2S73,9.45,73,12.6Z"/><path id="el_HkXghv-yP3m" data-name="Left 3" d="M20.37,13.16c0,2.48-1.17,2.84-2.61,2.84s-2.13-.83-2.13-3.32A10.66,10.66,0,0,1,17.76,7C18,7,20.37,10.67,20.37,13.16Z"/><path id="el_ByEx3wb1w3X" data-name="right 3" d="M66.37,13.16c0,2.48-1.17,2.84-2.61,2.84s-2.13-.83-2.13-3.32A10.66,10.66,0,0,1,63.76,7C64,7,66.37,10.67,66.37,13.16Z"/><path id="el_rJHxhDZkDnm" data-name="Left 4" d="M26.37,13.16c0,2.48-1.17,2.84-2.61,2.84s-2.13-.83-2.13-3.32A10.66,10.66,0,0,1,23.76,7C24,7,26.37,10.67,26.37,13.16Z"/><path id="el_SyLxnw-JP27" data-name="Right 4" d="M60.37,13.16c0,2.48-1.17,2.84-2.61,2.84s-2.13-.83-2.13-3.32A10.66,10.66,0,0,1,57.76,7C58,7,60.37,10.67,60.37,13.16Z"/></g></g></g></svg>