<svg xmlns="http://www.w3.org/2000/svg" viewBox="0 0 106 143" id="el_Sk-GVdHJPnX"><style>@-webkit-keyframes el_rk_fN_H1P27_Animation{66.67%{opacity: 0;}80%{opacity: 1;}0%{opacity: 0;}100%{opacity: 1;}}@keyframes el_rk_fN_H1P27_Animation{66.67%{opacity: 0;}80%{opacity: 1;}0%{opacity: 0;}100%{opacity: 1;}}@-webkit-keyframes el_ryDGE_ryP2Q_Animation{40%{opacity: 0;}53.33%{opacity: 1;}0%{opacity: 0;}100%{opacity: 1;}}@keyframes el_ryDGE_ryP2Q_Animation{40%{opacity: 0;}53.33%{opacity: 1;}0%{opacity: 0;}100%{opacity: 1;}}@-webkit-keyframes el_SJIfEdSJP37_Animation{13.33%{opacity: 0;}26.67%{opacity: 1;}0%{opacity: 0;}100%{opacity: 1;}}@keyframes el_SJIfEdSJP37_Animation{13.33%{opacity: 0;}26.67%{opacity: 1;}0%{opacity: 0;}100%{opacity: 1;}}@-webkit-keyframes el_SyYfVOH1vnQ_Animation{0%{opacity: 0;}13.33%{opacity: 1;}100%{opacity: 1;}}@keyframes el_SyYfVOH1vnQ_Animation{0%{opacity: 0;}13.33%{opacity: 1;}100%{opacity: 1;}}#el_Sk-GVdHJPnX *{-webkit-animation-duration: 1.5s;animation-duration: 1.5s;-webkit-animation-iteration-count: infinite;animation-iteration-count: infinite;-webkit-animation-timing-function: cubic-bezier(0, 0, 1, 1);animation-timing-function: cubic-bezier(0, 0, 1, 1);}#el_r1BG4_Hkw2m{fill: blue;}#el_SJIfEdSJP37{fill: #ff0;-webkit-animation-name: el_SJIfEdSJP37_Animation;animation-name: el_SJIfEdSJP37_Animation;opacity: 0;}#el_ryDGE_ryP2Q{fill: #ff0;-webkit-animation-name: el_ryDGE_ryP2Q_Animation;animation-name: el_ryDGE_ryP2Q_Animation;opacity: 0;}#el_rk_fN_H1P27{fill: #ff0;-webkit-animation-name: el_rk_fN_H1P27_Animation;animation-name: el_rk_fN_H1P27_Animation;opacity: 0;}#el_SyYfVOH1vnQ{fill: #ff0;-webkit-animation-name: el_SyYfVOH1vnQ_Animation;animation-name: el_SyYfVOH1vnQ_Animation;opacity: 0;}#el_S15fNOr1vh7{fill: #b3b3b3;}</style><defs/><title>Asset 5</title><g id="el_S1MzEOr1w2X" data-name="Layer 2"><g id="el_H17M4OHkvnX" data-name="Christmas Ornament"><g id="el_SyVz4dr1vnQ" data-name="Christmas Ornament"><circle id="el_r1BG4_Hkw2m" cx="53" cy="90" r="53"/><polygon id="el_SJIfEdSJP37" data-name="Full right star" points="88.95 84.58 80.66 72.04 75.75 86.25 61.26 90.26 73.26 99.32 72.6 114.34 84.92 105.73 99 111 94.62 96.62 103.98 84.86 88.95 84.58"/><path id="el_ryDGE_ryP2Q" data-name="Half Left star" d="M.09,87l9-3.33L30,98.33,28.93,72.75,49.39,57.36,24.73,50.47l-1.49-4.33A53,53,0,0,0,.09,87Z"/><polygon id="el_rk_fN_H1P27" data-name="Small star" points="67.33 69.33 61.42 63.86 53.56 65.62 56.94 58.31 52.83 51.38 60.83 52.33 66.16 46.28 67.72 54.19 75.12 57.38 68.08 61.31 67.33 69.33"/><path id="el_SyYfVOH1vnQ" data-name="Bottom star" d="M50.83,124.67l7.88-17.36-18.57,4.3L26.06,98.76l-1.64,19L12.7,124.4a53.31,53.31,0,0,0,9.94,9l2.76,1.17.15.74a52.22,52.22,0,0,0,14.07,5.95l2.1-2.42,19,2.13Z"/><rect id="el_S15fNOr1vh7" data-name="Hook base" x="34" y="33" width="37" height="9"/><path id="el_Syjz4uS1P3X" d="M52,0A17,17,0,1,0,69,17,17,17,0,0,0,52,0Zm-.25,31A14.25,14.25,0,1,1,66,16.75,14.25,14.25,0,0,1,51.75,31Z"/></g></g></g></svg>