<svg xmlns="http://www.w3.org/2000/svg" viewBox="0 0 93 116" id="el_SkYpuQeDnX"><style>@-webkit-keyframes el_HysTdQeP2m_B1yi7lwnX_Animation{0%{-webkit-transform: translate(46.5px, 0px) rotate(0deg) translate(-46.5px, 0px);transform: translate(46.5px, 0px) rotate(0deg) translate(-46.5px, 0px);}12%{-webkit-transform: translate(46.5px, 0px) rotate(10deg) translate(-46.5px, 0px);transform: translate(46.5px, 0px) rotate(10deg) translate(-46.5px, 0px);}24%{-webkit-transform: translate(46.5px, 0px) rotate(-10deg) translate(-46.5px, 0px);transform: translate(46.5px, 0px) rotate(-10deg) translate(-46.5px, 0px);}36%{-webkit-transform: translate(46.5px, 0px) rotate(10deg) translate(-46.5px, 0px);transform: translate(46.5px, 0px) rotate(10deg) translate(-46.5px, 0px);}48%{-webkit-transform: translate(46.5px, 0px) rotate(-10deg) translate(-46.5px, 0px);transform: translate(46.5px, 0px) rotate(-10deg) translate(-46.5px, 0px);}60%{-webkit-transform: translate(46.5px, 0px) rotate(10deg) translate(-46.5px, 0px);transform: translate(46.5px, 0px) rotate(10deg) translate(-46.5px, 0px);}72%{-webkit-transform: translate(46.5px, 0px) rotate(-10deg) translate(-46.5px, 0px);transform: translate(46.5px, 0px) rotate(-10deg) translate(-46.5px, 0px);}84%{-webkit-transform: translate(46.5px, 0px) rotate(0deg) translate(-46.5px, 0px);transform: translate(46.5px, 0px) rotate(0deg) translate(-46.5px, 0px);}100%{-webkit-transform: translate(46.5px, 0px) rotate(0deg) translate(-46.5px, 0px);transform: translate(46.5px, 0px) rotate(0deg) translate(-46.5px, 0px);}}@keyframes el_HysTdQeP2m_B1yi7lwnX_Animation{0%{-webkit-transform: translate(46.5px, 0px) rotate(0deg) translate(-46.5px, 0px);transform: translate(46.5px, 0px) rotate(0deg) translate(-46.5px, 0px);}12%{-webkit-transform: translate(46.5px, 0px) rotate(10deg) translate(-46.5px, 0px);transform: translate(46.5px, 0px) rotate(10deg) translate(-46.5px, 0px);}24%{-webkit-transform: translate(46.5px, 0px) rotate(-10deg) translate(-46.5px, 0px);transform: translate(46.5px, 0px) rotate(-10deg) translate(-46.5px, 0px);}36%{-webkit-transform: translate(46.5px, 0px) rotate(10deg) translate(-46.5px, 0px);transform: translate(46.5px, 0px) rotate(10deg) translate(-46.5px, 0px);}48%{-webkit-transform: translate(46.5px, 0px) rotate(-10deg) translate(-46.5px, 0px);transform: translate(46.5px, 0px) rotate(-10deg) translate(-46.5px, 0px);}60%{-webkit-transform: translate(46.5px, 0px) rotate(10deg) translate(-46.5px, 0px);transform: translate(46.5px, 0px) rotate(10deg) translate(-46.5px, 0px);}72%{-webkit-transform: translate(46.5px, 0px) rotate(-10deg) translate(-46.5px, 0px);transform: translate(46.5px, 0px) rotate(-10deg) translate(-46.5px, 0px);}84%{-webkit-transform: translate(46.5px, 0px) rotate(0deg) translate(-46.5px, 0px);transform: translate(46.5px, 0px) rotate(0deg) translate(-46.5px, 0px);}100%{-webkit-transform: translate(46.5px, 0px) rotate(0deg) translate(-46.5px, 0px);transform: translate(46.5px, 0px) rotate(0deg) translate(-46.5px, 0px);}}#el_SkYpuQeDnX *{-webkit-animation-duration: 2.5s;animation-duration: 2.5s;-webkit-animation-iteration-count: infinite;animation-iteration-count: infinite;-webkit-animation-timing-function: cubic-bezier(0, 0, 1, 1);animation-timing-function: cubic-bezier(0, 0, 1, 1);}#el_S1pTOmxw2Q{fill: #006837;}#el_rk0TdmlvnQ{fill: red;}#el_SJyg6_7xwnm{fill: #ff0;}#el_HysTdQeP2m_B1yi7lwnX{-webkit-animation-name: el_HysTdQeP2m_B1yi7lwnX_Animation;animation-name: el_HysTdQeP2m_B1yi7lwnX_Animation;-webkit-transform: translate(46.5px, 0px) rotate(0deg) translate(-46.5px, 0px);transform: translate(46.5px, 0px) rotate(0deg) translate(-46.5px, 0px);}</style><defs/><title>Asset 27</title><g id="el_H156d7lwh7" data-name="Layer 2"><g id="el_HysTdQeP2m_B1yi7lwnX" data-animator-group="true" data-animator-type="1"><g id="el_HysTdQeP2m"><g id="el_HJhpOXev27" data-name="Wreathe"><path id="el_S1pTOmxw2Q" d="M46.5,0A46.5,46.5,0,1,0,93,46.5,46.5,46.5,0,0,0,46.5,0Zm0,76A29.5,29.5,0,1,1,76,46.5,29.5,29.5,0,0,1,46.5,76Z"/><path id="el_rk0TdmlvnQ" d="M76.16,78.47H59.51c-1.49,0-2.73,1.17-7.38,2.63a7.06,7.06,0,0,0-10.84-.18c-4.18-1.38-5.37-2.45-6.8-2.45H17.84A2.85,2.85,0,0,0,15,81.31v8.46a2.84,2.84,0,0,0,2.84,2.84H34.49a3.59,3.59,0,0,0,1.21-.23L23.51,109.31a3,3,0,0,0,.68,4.17l3.25,2.34a3,3,0,0,0,4.18-.68l14.83-20.6,14.83,20.6a3,3,0,0,0,4.18.68l3.25-2.34a3,3,0,0,0,.68-4.17L56.73,91.73a7.33,7.33,0,0,0,2.78.88H76.16A2.84,2.84,0,0,0,79,89.77V81.31A2.85,2.85,0,0,0,76.16,78.47Z"/><circle id="el_SJyg6_7xwnm" cx="46" cy="87" r="6"/></g></g></g></g></svg>